<svg xmlns="http://www.w3.org/2000/svg" xmlns:xlink="http://www.w3.org/1999/xlink" width="500" zoomAndPan="magnify" viewBox="0 0 375 374.999991" height="500" preserveAspectRatio="xMidYMid meet" version="1.0"><defs><clipPath id="6e44a4354e"><path d="M 0 23.164062 L 375 23.164062 L 375 352 L 0 352 Z M 0 23.164062 " clip-rule="nonzero"/></clipPath><clipPath id="6a65f4fd2a"><path d="M 280.683594 23.164062 L 94.316406 23.164062 L 0 187.5 L 94.316406 351.835938 L 280.683594 351.835938 L 375 187.5 L 280.683594 23.164062 M 275.554688 342.933594 L 99.445312 342.933594 L 10.261719 187.5 L 99.445312 32.066406 L 275.554688 32.066406 L 364.738281 187.5 L 275.554688 342.933594 " clip-rule="nonzero"/></clipPath><clipPath id="a6106a7606"><path d="M 112.5 136.089844 L 262.5 136.089844 L 262.5 238.839844 L 112.5 238.839844 Z M 112.5 136.089844 " clip-rule="nonzero"/></clipPath></defs><g clip-path="url(#6e44a4354e)"><g clip-path="url(#6a65f4fd2a)"><path fill="#000000" d="M 0 23.164062 L 375 23.164062 L 375 352.136719 L 0 352.136719 Z M 0 23.164062 " fill-opacity="1" fill-rule="nonzero"/></g></g><g clip-path="url(#a6106a7606)"><path fill="#0b0444" d="M 112.535156 238.839844 L 185.359375 187.464844 L 112.535156 136.089844 Z M 189.640625 136.089844 L 189.640625 238.839844 L 262.464844 187.464844 Z M 189.640625 136.089844 " fill-opacity="1" fill-rule="nonzero"/></g></svg>