<svg xmlns="http://www.w3.org/2000/svg" xmlns:xlink="http://www.w3.org/1999/xlink" width="500" zoomAndPan="magnify" viewBox="0 0 375 374.999991" height="500" preserveAspectRatio="xMidYMid meet" version="1.0"><defs><clipPath id="63a1693399"><path d="M 0 23.164062 L 375 23.164062 L 375 352 L 0 352 Z M 0 23.164062 " clip-rule="nonzero"/></clipPath><clipPath id="4aeb53e967"><path d="M 280.683594 23.164062 L 94.316406 23.164062 L 0 187.5 L 94.316406 351.835938 L 280.683594 351.835938 L 375 187.5 L 280.683594 23.164062 M 275.554688 342.933594 L 99.445312 342.933594 L 10.261719 187.5 L 99.445312 32.066406 L 275.554688 32.066406 L 364.738281 187.5 L 275.554688 342.933594 " clip-rule="nonzero"/></clipPath><clipPath id="97b69232cf"><path d="M 126.136719 112.5 L 249.136719 112.5 L 249.136719 262.5 L 126.136719 262.5 Z M 126.136719 112.5 " clip-rule="nonzero"/></clipPath></defs><g clip-path="url(#63a1693399)"><g clip-path="url(#4aeb53e967)"><path fill="#000000" d="M 0 23.164062 L 375 23.164062 L 375 352.136719 L 0 352.136719 Z M 0 23.164062 " fill-opacity="1" fill-rule="nonzero"/></g></g><g clip-path="url(#97b69232cf)"><path fill="#0b0444" d="M 187.636719 112.503906 L 126.136719 139.777344 L 126.136719 180.683594 C 126.136719 218.554688 152.34375 253.871094 187.636719 262.496094 C 222.929688 253.871094 249.136719 218.554688 249.136719 180.683594 L 249.136719 139.777344 Z M 173.96875 221.589844 L 146.636719 194.316406 L 156.304688 184.671875 L 173.96875 202.292969 L 218.96875 157.398438 L 228.636719 167.046875 Z M 173.96875 221.589844 " fill-opacity="1" fill-rule="nonzero"/></g></svg>