<svg xmlns="http://www.w3.org/2000/svg" xmlns:xlink="http://www.w3.org/1999/xlink" width="500" zoomAndPan="magnify" viewBox="0 0 375 374.999991" height="500" preserveAspectRatio="xMidYMid meet" version="1.0"><defs><clipPath id="7ceeb95d07"><path d="M 0 23.164062 L 375 23.164062 L 375 352 L 0 352 Z M 0 23.164062 " clip-rule="nonzero"/></clipPath><clipPath id="3c3b26d1d4"><path d="M 280.683594 23.164062 L 94.316406 23.164062 L 0 187.5 L 94.316406 351.835938 L 280.683594 351.835938 L 375 187.5 L 280.683594 23.164062 M 275.554688 342.933594 L 99.445312 342.933594 L 10.261719 187.5 L 99.445312 32.066406 L 275.554688 32.066406 L 364.738281 187.5 L 275.554688 342.933594 " clip-rule="nonzero"/></clipPath><clipPath id="2840b1dc10"><path d="M 114.136719 114 L 261.136719 114 L 261.136719 262 L 114.136719 262 Z M 114.136719 114 " clip-rule="nonzero"/></clipPath></defs><g clip-path="url(#7ceeb95d07)"><g clip-path="url(#3c3b26d1d4)"><path fill="#000000" d="M 0 23.164062 L 375 23.164062 L 375 352.136719 L 0 352.136719 Z M 0 23.164062 " fill-opacity="1" fill-rule="nonzero"/></g></g><g clip-path="url(#2840b1dc10)"><path fill="#0b0444" d="M 240.527344 165.789062 L 240.527344 138.027344 C 240.527344 137.609375 240.449219 137.203125 240.289062 136.816406 C 240.128906 136.429688 239.898438 136.085938 239.601562 135.792969 C 239.304688 135.496094 238.960938 135.265625 238.574219 135.105469 C 238.183594 134.945312 237.78125 134.863281 237.359375 134.867188 L 209.542969 134.867188 L 189.875 115.234375 C 189.574219 114.949219 189.230469 114.730469 188.839844 114.574219 C 188.453125 114.421875 188.054688 114.34375 187.636719 114.34375 C 187.21875 114.34375 186.816406 114.421875 186.429688 114.574219 C 186.042969 114.730469 185.699219 114.949219 185.394531 115.234375 L 165.730469 134.867188 L 137.910156 134.867188 C 137.492188 134.863281 137.085938 134.945312 136.699219 135.105469 C 136.3125 135.265625 135.96875 135.496094 135.671875 135.792969 C 135.375 136.085938 135.144531 136.429688 134.984375 136.816406 C 134.824219 137.203125 134.742188 137.609375 134.742188 138.027344 L 134.742188 165.789062 L 115.074219 185.421875 C 114.777344 185.71875 114.546875 186.0625 114.386719 186.449219 C 114.226562 186.835938 114.144531 187.238281 114.144531 187.65625 C 114.144531 188.078125 114.226562 188.480469 114.386719 188.867188 C 114.546875 189.253906 114.777344 189.597656 115.074219 189.894531 L 134.742188 209.523438 L 134.742188 237.289062 C 134.742188 237.707031 134.824219 238.109375 134.984375 238.496094 C 135.144531 238.886719 135.375 239.226562 135.671875 239.523438 C 135.96875 239.820312 136.3125 240.050781 136.699219 240.210938 C 137.085938 240.371094 137.492188 240.449219 137.910156 240.449219 L 165.730469 240.449219 L 185.398438 260.082031 C 185.695312 260.378906 186.035156 260.609375 186.425781 260.769531 C 186.8125 260.929688 187.214844 261.007812 187.636719 261.007812 C 188.054688 261.007812 188.460938 260.929688 188.847656 260.769531 C 189.238281 260.609375 189.578125 260.378906 189.875 260.082031 L 209.542969 240.449219 L 237.359375 240.449219 C 237.78125 240.449219 238.183594 240.371094 238.574219 240.210938 C 238.960938 240.046875 239.304688 239.820312 239.601562 239.523438 C 239.898438 239.226562 240.128906 238.886719 240.289062 238.496094 C 240.449219 238.109375 240.527344 237.707031 240.527344 237.289062 L 240.527344 209.523438 L 260.199219 189.894531 C 260.496094 189.597656 260.726562 189.253906 260.886719 188.867188 C 261.046875 188.480469 261.128906 188.078125 261.128906 187.65625 C 261.128906 187.238281 261.046875 186.835938 260.886719 186.449219 C 260.726562 186.0625 260.496094 185.71875 260.199219 185.421875 Z M 235.121094 205.980469 C 234.5 206.597656 234.191406 207.339844 234.191406 208.214844 L 234.191406 234.125 L 208.230469 234.125 C 207.355469 234.125 206.609375 234.433594 205.992188 235.050781 L 187.636719 253.375 L 169.28125 235.050781 C 168.664062 234.433594 167.914062 234.125 167.039062 234.125 L 141.082031 234.125 L 141.082031 208.214844 C 141.082031 207.339844 140.769531 206.597656 140.152344 205.980469 L 121.792969 187.65625 L 140.152344 169.335938 C 140.769531 168.71875 141.078125 167.972656 141.082031 167.101562 L 141.082031 141.1875 L 167.039062 141.1875 C 167.914062 141.1875 168.660156 140.878906 169.28125 140.261719 L 187.636719 121.941406 L 205.992188 140.261719 C 206.609375 140.878906 207.355469 141.191406 208.230469 141.1875 L 234.191406 141.1875 L 234.191406 167.101562 C 234.191406 167.972656 234.503906 168.71875 235.121094 169.335938 L 253.480469 187.65625 Z M 235.121094 205.980469 " fill-opacity="1" fill-rule="nonzero"/></g><path fill="#0b0444" d="M 226.488281 152.042969 C 226.488281 151.621094 226.410156 151.21875 226.246094 150.832031 C 226.085938 150.445312 225.859375 150.101562 225.5625 149.804688 C 225.265625 149.507812 224.921875 149.28125 224.535156 149.121094 C 224.144531 148.960938 223.742188 148.878906 223.320312 148.878906 L 203.730469 148.878906 L 189.875 135.050781 C 189.578125 134.753906 189.238281 134.527344 188.847656 134.367188 C 188.460938 134.207031 188.054688 134.125 187.636719 134.125 C 187.214844 134.125 186.8125 134.207031 186.425781 134.367188 C 186.035156 134.527344 185.691406 134.753906 185.394531 135.050781 L 171.542969 148.878906 L 151.953125 148.878906 C 151.53125 148.878906 151.128906 148.960938 150.738281 149.121094 C 150.351562 149.28125 150.007812 149.507812 149.710938 149.804688 C 149.414062 150.101562 149.183594 150.445312 149.023438 150.832031 C 148.863281 151.21875 148.785156 151.621094 148.785156 152.042969 L 148.785156 171.597656 L 134.929688 185.421875 C 134.632812 185.71875 134.402344 186.0625 134.242188 186.449219 C 134.082031 186.835938 134 187.238281 134 187.65625 C 134 188.078125 134.082031 188.480469 134.242188 188.867188 C 134.402344 189.253906 134.632812 189.597656 134.929688 189.894531 L 148.785156 203.722656 L 148.785156 223.273438 C 148.785156 223.695312 148.863281 224.097656 149.023438 224.484375 C 149.183594 224.871094 149.414062 225.214844 149.710938 225.511719 C 150.007812 225.808594 150.351562 226.035156 150.738281 226.195312 C 151.128906 226.355469 151.53125 226.4375 151.953125 226.4375 L 171.542969 226.4375 L 185.394531 240.265625 C 185.691406 240.558594 186.035156 240.789062 186.425781 240.949219 C 186.8125 241.109375 187.214844 241.191406 187.636719 241.191406 C 188.054688 241.191406 188.460938 241.109375 188.847656 240.949219 C 189.238281 240.789062 189.578125 240.558594 189.875 240.265625 L 203.730469 226.4375 L 223.320312 226.4375 C 223.742188 226.4375 224.144531 226.355469 224.53125 226.195312 C 224.921875 226.035156 225.265625 225.808594 225.5625 225.511719 C 225.859375 225.214844 226.085938 224.871094 226.246094 224.484375 C 226.410156 224.097656 226.488281 223.695312 226.488281 223.273438 L 226.488281 203.722656 L 240.34375 189.894531 C 240.640625 189.597656 240.867188 189.253906 241.03125 188.867188 C 241.191406 188.480469 241.269531 188.078125 241.269531 187.660156 C 241.269531 187.238281 241.191406 186.835938 241.03125 186.449219 C 240.867188 186.0625 240.640625 185.71875 240.34375 185.421875 L 226.488281 171.597656 Z M 233.625 187.65625 L 221.082031 200.175781 C 220.460938 200.792969 220.152344 201.539062 220.152344 202.414062 L 220.152344 220.113281 L 202.417969 220.113281 C 201.542969 220.113281 200.796875 220.421875 200.179688 221.039062 L 187.636719 233.558594 L 175.09375 221.039062 C 174.476562 220.421875 173.730469 220.113281 172.855469 220.113281 L 155.121094 220.113281 L 155.121094 202.414062 C 155.121094 201.539062 154.8125 200.792969 154.191406 200.175781 L 141.648438 187.65625 L 154.191406 175.140625 C 154.808594 174.523438 155.121094 173.777344 155.121094 172.90625 L 155.121094 155.203125 L 172.855469 155.203125 C 173.730469 155.203125 174.476562 154.894531 175.09375 154.277344 L 187.636719 141.757812 L 200.179688 154.277344 C 200.796875 154.894531 201.542969 155.203125 202.417969 155.203125 L 220.152344 155.203125 L 220.152344 172.90625 C 220.152344 173.777344 220.460938 174.523438 221.082031 175.140625 Z M 233.625 187.65625 " fill-opacity="1" fill-rule="nonzero"/><path fill="#0b0444" d="M 203.605469 171.171875 L 177.292969 197.4375 L 171.664062 191.820312 C 171.367188 191.523438 171.027344 191.296875 170.636719 191.136719 C 170.25 190.976562 169.847656 190.894531 169.425781 190.894531 C 169.007812 190.894531 168.601562 190.976562 168.214844 191.136719 C 167.828125 191.296875 167.484375 191.527344 167.1875 191.824219 C 166.890625 192.117188 166.660156 192.460938 166.5 192.847656 C 166.339844 193.234375 166.261719 193.636719 166.261719 194.058594 C 166.261719 194.476562 166.339844 194.878906 166.5 195.265625 C 166.660156 195.652344 166.890625 195.996094 167.1875 196.292969 L 175.054688 204.144531 C 175.351562 204.441406 175.691406 204.667969 176.082031 204.832031 C 176.46875 204.992188 176.875 205.070312 177.292969 205.070312 C 177.714844 205.070312 178.117188 204.992188 178.507812 204.832031 C 178.894531 204.667969 179.238281 204.441406 179.535156 204.144531 L 208.085938 175.644531 C 208.382812 175.347656 208.613281 175.007812 208.773438 174.617188 C 208.933594 174.230469 209.015625 173.828125 209.015625 173.410156 C 209.015625 172.988281 208.933594 172.585938 208.773438 172.199219 C 208.613281 171.8125 208.382812 171.46875 208.085938 171.171875 C 207.789062 170.875 207.445312 170.648438 207.058594 170.488281 C 206.671875 170.328125 206.265625 170.246094 205.847656 170.246094 C 205.425781 170.246094 205.023438 170.328125 204.632812 170.488281 C 204.246094 170.648438 203.902344 170.875 203.605469 171.171875 Z M 203.605469 171.171875 " fill-opacity="1" fill-rule="nonzero"/></svg>