<svg xmlns="http://www.w3.org/2000/svg" xmlns:xlink="http://www.w3.org/1999/xlink" width="500" zoomAndPan="magnify" viewBox="0 0 375 374.999991" height="500" preserveAspectRatio="xMidYMid meet" version="1.0"><defs><clipPath id="473e60ea4e"><path d="M 0 23.164062 L 375 23.164062 L 375 352 L 0 352 Z M 0 23.164062 " clip-rule="nonzero"/></clipPath><clipPath id="d83a4598f8"><path d="M 280.683594 23.164062 L 94.316406 23.164062 L 0 187.5 L 94.316406 351.835938 L 280.683594 351.835938 L 375 187.5 L 280.683594 23.164062 M 275.554688 342.933594 L 99.445312 342.933594 L 10.261719 187.5 L 99.445312 32.066406 L 275.554688 32.066406 L 364.738281 187.5 L 275.554688 342.933594 " clip-rule="nonzero"/></clipPath><clipPath id="64ce4f40b2"><path d="M 112.5 135 L 200 135 L 200 262.5 L 112.5 262.5 Z M 112.5 135 " clip-rule="nonzero"/></clipPath><clipPath id="c0b46b6314"><path d="M 203 145 L 262.5 145 L 262.5 262.5 L 203 262.5 Z M 203 145 " clip-rule="nonzero"/></clipPath><clipPath id="48923e87b3"><path d="M 214 112.5 L 252 112.5 L 252 150 L 214 150 Z M 214 112.5 " clip-rule="nonzero"/></clipPath></defs><g clip-path="url(#473e60ea4e)"><g clip-path="url(#d83a4598f8)"><path fill="#000000" d="M 0 23.164062 L 375 23.164062 L 375 352.136719 L 0 352.136719 Z M 0 23.164062 " fill-opacity="1" fill-rule="nonzero"/></g></g><g clip-path="url(#64ce4f40b2)"><path fill="#0b0444" d="M 189.84375 135.9375 L 121.875 135.9375 C 116.71875 135.9375 112.5 140.15625 112.5 145.3125 L 112.5 253.125 C 112.5 258.28125 116.71875 262.5 121.875 262.5 L 189.84375 262.5 C 195 262.5 199.21875 258.28125 199.21875 253.125 L 199.21875 145.3125 C 199.21875 140.15625 195 135.9375 189.84375 135.9375 Z M 194.53125 253.125 C 194.53125 255.703125 192.421875 257.8125 189.84375 257.8125 L 121.875 257.8125 C 119.296875 257.8125 117.1875 255.703125 117.1875 253.125 L 117.1875 145.3125 C 117.1875 142.734375 119.296875 140.625 121.875 140.625 L 189.84375 140.625 C 192.421875 140.625 194.53125 142.734375 194.53125 145.3125 Z M 194.53125 253.125 " fill-opacity="1" fill-rule="nonzero"/></g><path fill="#0b0444" d="M 185.15625 150 L 150 150 C 148.710938 150 147.65625 151.054688 147.65625 152.34375 C 147.65625 153.632812 148.710938 154.6875 150 154.6875 L 185.15625 154.6875 C 186.445312 154.6875 187.5 153.632812 187.5 152.34375 C 187.5 151.054688 186.445312 150 185.15625 150 Z M 185.15625 150 " fill-opacity="1" fill-rule="nonzero"/><path fill="#0b0444" d="M 185.15625 159.375 L 150 159.375 C 148.710938 159.375 147.65625 160.429688 147.65625 161.71875 C 147.65625 163.007812 148.710938 164.0625 150 164.0625 L 185.15625 164.0625 C 186.445312 164.0625 187.5 163.007812 187.5 161.71875 C 187.5 160.429688 186.445312 159.375 185.15625 159.375 Z M 185.15625 159.375 " fill-opacity="1" fill-rule="nonzero"/><path fill="#0b0444" d="M 185.15625 168.75 L 150 168.75 C 148.710938 168.75 147.65625 169.804688 147.65625 171.09375 C 147.65625 172.382812 148.710938 173.4375 150 173.4375 L 185.15625 173.4375 C 186.445312 173.4375 187.5 172.382812 187.5 171.09375 C 187.5 169.804688 186.445312 168.75 185.15625 168.75 Z M 185.15625 168.75 " fill-opacity="1" fill-rule="nonzero"/><path fill="#0b0444" d="M 125.15625 164.765625 C 125.15625 164.765625 129.84375 168.28125 129.84375 168.28125 C 130.898438 168.984375 132.304688 168.867188 133.125 167.8125 L 140.15625 158.4375 C 140.976562 157.382812 140.742188 155.976562 139.6875 155.15625 C 138.632812 154.335938 137.226562 154.570312 136.40625 155.625 L 130.78125 163.125 L 127.96875 161.015625 C 126.914062 160.195312 125.507812 160.429688 124.6875 161.484375 C 123.867188 162.539062 124.101562 163.945312 125.15625 164.765625 Z M 125.15625 164.765625 " fill-opacity="1" fill-rule="nonzero"/><path fill="#0b0444" d="M 185.15625 187.5 L 150 187.5 C 148.710938 187.5 147.65625 188.554688 147.65625 189.84375 C 147.65625 191.132812 148.710938 192.1875 150 192.1875 L 185.15625 192.1875 C 186.445312 192.1875 187.5 191.132812 187.5 189.84375 C 187.5 188.554688 186.445312 187.5 185.15625 187.5 Z M 185.15625 187.5 " fill-opacity="1" fill-rule="nonzero"/><path fill="#0b0444" d="M 185.15625 196.875 L 150 196.875 C 148.710938 196.875 147.65625 197.929688 147.65625 199.21875 C 147.65625 200.507812 148.710938 201.5625 150 201.5625 L 185.15625 201.5625 C 186.445312 201.5625 187.5 200.507812 187.5 199.21875 C 187.5 197.929688 186.445312 196.875 185.15625 196.875 Z M 185.15625 196.875 " fill-opacity="1" fill-rule="nonzero"/><path fill="#0b0444" d="M 185.15625 206.25 L 150 206.25 C 148.710938 206.25 147.65625 207.304688 147.65625 208.59375 C 147.65625 209.882812 148.710938 210.9375 150 210.9375 L 185.15625 210.9375 C 186.445312 210.9375 187.5 209.882812 187.5 208.59375 C 187.5 207.304688 186.445312 206.25 185.15625 206.25 Z M 185.15625 206.25 " fill-opacity="1" fill-rule="nonzero"/><path fill="#0b0444" d="M 125.15625 202.265625 C 125.15625 202.265625 129.84375 205.78125 129.84375 205.78125 C 130.78125 206.484375 132.421875 206.367188 133.125 205.3125 L 140.15625 195.9375 C 140.976562 194.882812 140.742188 193.476562 139.6875 192.65625 C 138.632812 191.835938 137.226562 192.070312 136.40625 193.125 L 130.78125 200.625 L 127.96875 198.515625 C 126.914062 197.695312 125.507812 197.929688 124.6875 198.984375 C 123.867188 200.039062 124.101562 201.445312 125.15625 202.265625 Z M 125.15625 202.265625 " fill-opacity="1" fill-rule="nonzero"/><path fill="#0b0444" d="M 185.15625 225 L 150 225 C 148.710938 225 147.65625 226.054688 147.65625 227.34375 C 147.65625 228.632812 148.710938 229.6875 150 229.6875 L 185.15625 229.6875 C 186.445312 229.6875 187.5 228.632812 187.5 227.34375 C 187.5 226.054688 186.445312 225 185.15625 225 Z M 185.15625 225 " fill-opacity="1" fill-rule="nonzero"/><path fill="#0b0444" d="M 176.953125 234.375 L 150 234.375 C 148.710938 234.375 147.65625 235.429688 147.65625 236.71875 C 147.65625 238.007812 148.710938 239.0625 150 239.0625 L 176.953125 239.0625 C 178.242188 239.0625 179.296875 238.007812 179.296875 236.71875 C 179.296875 235.429688 178.242188 234.375 176.953125 234.375 Z M 176.953125 234.375 " fill-opacity="1" fill-rule="nonzero"/><path fill="#0b0444" d="M 173.4375 243.75 L 150 243.75 C 148.710938 243.75 147.65625 244.804688 147.65625 246.09375 C 147.65625 247.382812 148.710938 248.4375 150 248.4375 L 173.4375 248.4375 C 174.726562 248.4375 175.78125 247.382812 175.78125 246.09375 C 175.78125 244.804688 174.726562 243.75 173.4375 243.75 Z M 173.4375 243.75 " fill-opacity="1" fill-rule="nonzero"/><path fill="#0b0444" d="M 132.421875 228.515625 C 127.851562 228.515625 124.21875 232.148438 124.21875 236.71875 C 124.21875 241.289062 127.851562 244.921875 132.421875 244.921875 C 136.992188 244.921875 140.625 241.289062 140.625 236.71875 C 140.625 232.148438 136.992188 228.515625 132.421875 228.515625 Z M 132.421875 240.234375 C 130.429688 240.234375 128.90625 238.710938 128.90625 236.71875 C 128.90625 234.726562 130.429688 233.203125 132.421875 233.203125 C 134.414062 233.203125 135.9375 234.726562 135.9375 236.71875 C 135.9375 238.710938 134.414062 240.234375 132.421875 240.234375 Z M 132.421875 240.234375 " fill-opacity="1" fill-rule="nonzero"/><g clip-path="url(#c0b46b6314)"><path fill="#0b0444" d="M 251.601562 145.664062 C 250.3125 147.304688 248.789062 148.710938 247.148438 150 L 248.4375 150 C 253.59375 150 257.8125 154.21875 257.8125 159.375 L 257.8125 192.773438 C 257.8125 195.234375 255.820312 197.226562 253.359375 197.226562 C 252.070312 197.226562 251.015625 198.28125 251.015625 199.570312 L 251.015625 206.25 L 215.390625 206.25 L 215.390625 199.570312 C 215.390625 198.28125 214.335938 197.226562 213.046875 197.226562 C 210.585938 197.226562 208.59375 195.234375 208.59375 192.773438 L 208.59375 159.375 C 208.59375 154.21875 212.8125 150 217.96875 150 L 219.257812 150 C 217.617188 148.710938 216.09375 147.304688 214.804688 145.664062 C 208.59375 147.1875 203.90625 152.695312 203.90625 159.375 L 203.90625 192.773438 C 203.90625 196.992188 206.835938 200.625 210.703125 201.5625 L 210.703125 206.25 C 210.703125 208.476562 212.34375 210.351562 214.453125 210.820312 L 214.453125 253.125 C 214.453125 258.28125 218.671875 262.5 223.828125 262.5 L 242.578125 262.5 C 247.734375 262.5 251.953125 258.28125 251.953125 253.125 L 251.953125 210.820312 C 254.0625 210.351562 255.703125 208.476562 255.703125 206.25 L 255.703125 201.5625 C 259.570312 200.507812 262.5 196.992188 262.5 192.773438 L 262.5 159.375 C 262.5 152.695312 257.8125 147.1875 251.601562 145.664062 Z M 247.265625 253.125 C 247.265625 255.703125 245.15625 257.8125 242.578125 257.8125 L 235.546875 257.8125 L 235.546875 229.6875 C 235.546875 228.398438 234.492188 227.34375 233.203125 227.34375 C 231.914062 227.34375 230.859375 228.398438 230.859375 229.6875 L 230.859375 257.8125 L 223.828125 257.8125 C 221.25 257.8125 219.140625 255.703125 219.140625 253.125 L 219.140625 210.9375 L 247.265625 210.9375 Z M 247.265625 253.125 " fill-opacity="1" fill-rule="nonzero"/></g><g clip-path="url(#48923e87b3)"><path fill="#0b0444" d="M 233.203125 150 C 243.515625 150 251.953125 141.5625 251.953125 131.25 C 251.953125 120.9375 243.515625 112.5 233.203125 112.5 C 222.890625 112.5 214.453125 120.9375 214.453125 131.25 C 214.453125 141.5625 222.890625 150 233.203125 150 Z M 233.203125 117.1875 C 240.9375 117.1875 247.265625 123.515625 247.265625 131.25 C 247.265625 138.984375 240.9375 145.3125 233.203125 145.3125 C 225.46875 145.3125 219.140625 138.984375 219.140625 131.25 C 219.140625 123.515625 225.46875 117.1875 233.203125 117.1875 Z M 233.203125 117.1875 " fill-opacity="1" fill-rule="nonzero"/></g></svg>